<svg viewBox="0 0 428 57" xmlns="http://www.w3.org/2000/svg">
<g fill="#FFF" fill-rule="evenodd">
<path d="M0 0h17.915C26.545 0 37 4.021 37 17.797c0 12.882-9.431 17.724-18.206 17.724h-7.825V56H0V0zm17.111 25.99c7.24 0 8.922-4.469 8.922-8.193 0-3.797-2.56-8.265-8.849-8.265H10.97V25.99h6.142zM66.626 32.692c0-5.51-3.24-7.371-6.481-7.371-4.18 0-6.773 3.722-6.773 8.935V56H43V0h10.372v22.714h.144c2.881-4.618 6.484-6.032 10.516-6.032C72.965 16.682 77 22.639 77 30.01V56H66.626V32.692zM91 0c3.073 0 6 2.733 6 6.133 0 3.25-2.714 6.28-6 6.28-3.43 0-6-3.179-6-6.134C85 3.178 87.57 0 91 0zm-5.143 18.026h10.286V56H85.857V18.026zM103 0h11v56h-11zM145.626 32.692c0-5.51-3.24-7.371-6.481-7.371-4.18 0-6.773 3.722-6.773 8.935V56H122V0h10.372v22.714h.144c2.881-4.618 6.484-6.032 10.516-6.032 8.933 0 12.968 5.957 12.968 13.329V56h-10.374V32.692zM186.932 50.872h-.146C183.311 55.637 178.385 57 174.04 57 168.17 57 161 53.974 161 45.123c0-4.16 1.303-11.044 15.863-11.952l9.634-.605V30.75c0-4.614-2.752-6.885-7.316-6.885-4.274 0-6.81 2.27-7.028 5.75h-9.995C162.519 23.64 166.577 16 179.615 16c9.2 0 16.878 3.631 16.878 12.557V51.1c0 2.04.218 3.404.507 4.84h-10.068v-5.068zm-.435-11.877l-8.692.834c-4.78.453-6.375 1.966-6.375 4.764 0 3.48 3.043 4.539 6.52 4.539 3.26 0 8.547-1.89 8.547-6.58v-3.557zM204 17.06h10.307v7.5h.147c2.017-5.53 5.974-8.56 11.053-8.56H227v10.606h-2.39c-5.525 0-9.858 3.41-9.858 10.304V56H204V17.06zM276.247 30.924c0-3.03-1.643-6.136-5.748-6.136-4.107 0-6.124 3.865-6.124 6.969V56h-10.753V31.985c0-4.09-1.343-7.197-5.823-7.197-4.405 0-6.048 3.789-6.048 7.575V56H231V17.06h10.303v5.076h.15C244.888 16.985 248.62 16 253.025 16c2.54 0 7.616.683 10.305 6.06 3.807-5.15 8.064-6.06 11.274-6.06C281.174 16 287 19.865 287 28.047V56h-10.753V30.924zM311 57c-11.787 0-20-8.018-20-20.501C291 24.019 299.213 16 311 16s20 8.018 20 20.499C331 48.982 322.787 57 311 57m0-32.224c-5.778 0-8.593 4.992-8.593 11.723 0 6.733 2.815 11.725 8.593 11.725 5.78 0 8.593-4.992 8.593-11.725 0-6.731-2.813-11.723-8.593-11.723M360.626 32.288c0-5.606-3.24-7.5-6.481-7.5-4.18 0-6.773 3.787-6.773 9.091V56H337V17.06h9.942v5.077h.142c3.098-4.698 6.771-6.137 10.948-6.137C366.965 16 371 22.06 371 29.56V56h-10.374V32.288zM381 0c3.073 0 6 2.733 6 6.133 0 3.25-2.714 6.28-6 6.28-3.43 0-6-3.179-6-6.134C375 3.178 377.57 0 381 0zm-5.143 18.026h10.286V56h-10.286V18.026zM417.932 50.872h-.145C414.31 55.637 409.386 57 405.04 57 399.173 57 392 53.974 392 45.123c0-4.16 1.305-11.044 15.864-11.952l9.634-.605V30.75c0-4.614-2.752-6.885-7.316-6.885-4.273 0-6.809 2.27-7.027 5.75h-9.995C393.52 23.64 397.578 16 410.616 16c9.2 0 16.877 3.631 16.877 12.557V51.1c0 2.04.218 3.404.507 4.84h-10.068v-5.068zm-.434-11.877l-8.692.834c-4.78.453-6.375 1.966-6.375 4.764 0 3.48 3.043 4.539 6.52 4.539 3.26 0 8.547-1.89 8.547-6.58v-3.557z"/>
</g>
</svg>